<svg id="Layer_1" xmlns="http://www.w3.org/2000/svg" xmlns:xlink="http://www.w3.org/1999/xlink" viewBox="0 0 207.4 40.9"><style>.st0,.st1{clip-path:url(#SVGID_2_);fill:#e7434e}.st1{fill:#fff}</style><defs><path id="SVGID_1_" d="M0 0h207.4v40.9H0z"/></defs><clipPath id="SVGID_2_"><use xlink:href="#SVGID_1_" overflow="visible"/></clipPath><path class="st0" d="M20.2 9.2c-2.2.5-4.7.9-7.7 1.2.9-1.6 2-3.1 3.4-4.5C19.7 2.1 24.8 0 30.2 0c2.6 0 4.8.3 6.6.8 3.7 1 6.2 2.8 8.7 4.6.8.6 1.6 1.2 2.6 1.8.5.3.9.6 1.5.9 2.2 1.3 5 2.6 9.3 3.6 1.7 1.7 2.8 3.8 3.2 6.1-8.8-1.4-13.7-4-16.9-6.1-.9-.6-1.8-1.2-2.6-1.8-.1 0-.1-.1-.2-.1-3.5-2.5-6.1-4.4-12.2-4.4h-.1c-3.7 0-7.2 1.4-9.9 3.8M62 23.1c-.5 2.3-1.6 4.4-3.3 6.1-4.1 1-7 2.3-9.2 3.6-.5.3-1 .6-1.4.9-.9.6-1.8 1.2-2.6 1.8-2.6 1.8-5 3.6-8.7 4.6-1.8.5-4 .8-6.6.8-5.4 0-10.5-2.1-14.3-5.9a21.3 21.3 0 0 1-3.4-4.5c3 .3 5.5.7 7.7 1.2 2.7 2.5 6.2 3.8 9.8 3.8h.1c6.2 0 8.7-1.8 12.2-4.4.1 0 .1-.1.2-.1.8-.6 1.6-1.2 2.6-1.8 3.6-2.4 8.5-4.8 16.9-6.1m18.4 1.6c0 1.5-1.2 2.7-2.7 2.7-2 0-3.9 0-5.7.1.6-1.8.9-3.6 1-5.4 1.5-.1 3-.1 4.7-.1 1.4 0 2.7 1.2 2.7 2.7M73 18.8c-.1-1.9-.4-3.7-1-5.4 1.8.1 3.7.1 5.7.1 1.5 0 2.7 1.2 2.7 2.7 0 1.5-1.2 2.7-2.7 2.7-1.7 0-3.2-.1-4.7-.1"/><path class="st1" d="M0 15.7c.2-1.3 1.5-2.2 2.8-2.2 2 0 3.8 0 5.5-.1 5.5-.2 9.8-.8 13.2-1.7 4.1-1 6.9-2.3 9.2-3.6 3.1.1 5 .7 6.9 1.7v.1c-4 2.9-8.8 6.2-19.4 7.9-3.1.5-6.7.8-11 1-1.5.1-3 .1-4.7.1-1.5 0-2.8-1.5-2.5-3.2m18.3 7.4c10.6 1.7 15.4 5 19.4 7.9v.1c-1.9 1.1-3.7 1.7-6.9 1.8-2.3-1.3-5.1-2.6-9.2-3.6-3.4-.8-7.7-1.4-13.2-1.7-1.8-.1-3.6-.1-5.7-.1-1.7 0-3-1.5-2.6-3.2.2-1.4 1.4-2.3 2.7-2.3 1.6 0 3.1 0 4.5.1 4.3.1 7.9.5 11 1m52-2.9v.5c0 3.6-.9 6.9-2.5 9.8-3.4 6.2-10.1 10.4-17.6 10.4-2.6 0-4.7-.3-6.5-.8-.1 0-.1-.1 0-.1 1.2-.7 2.3-1.5 3.4-2.3.8-.6 1.6-1.2 2.5-1.7.2-.1.5-.3.7-.4 3.8 0 7.2-1.5 9.8-3.8 3-2.7 4.8-6.6 4.8-11v-.5c0-4.3-1.9-8.2-4.8-10.9-2.6-2.4-6-3.8-9.8-3.8-.3-.1-.5-.3-.7-.4-.9-.6-1.7-1.2-2.5-1.7-1.1-.8-2.2-1.6-3.4-2.3v-.1C45.5.3 47.6 0 50.2 0c7.6 0 14.2 4.2 17.6 10.4 1.6 2.9 2.5 6.2 2.5 9.8m33.2-14.3c.2 0 .3.1.4.1.1.1.3.1.4.3.1.1.3.3.4.5L120 26.2c-.1-.5-.1-.9-.1-1.4V5.9h4.8V35h-2.8c-.4 0-.8-.1-1.1-.2-.3-.1-.6-.4-.8-.7l-15.2-19.4c0 .4.1.9.1 1.3v19H100V5.9h3.5M147.4 24l-3.5-9.7c-.2-.4-.3-.9-.5-1.5s-.4-1.2-.6-1.9c-.2.7-.4 1.3-.6 1.9-.2.6-.4 1.1-.5 1.6l-3.5 9.7-1.4 3.8-2.2 5.9c-.1.3-.3.6-.6.8-.3.3-.7.4-1.2.4h-4.2L140 5.9h5.5L157 35h-4.2c-.5 0-.9-.1-1.2-.4s-.5-.5-.7-.9l-2.2-5.9-1.3-3.8zm50.4 0l-3.5-9.7c-.2-.4-.3-.9-.5-1.5s-.4-1.2-.6-1.9c-.2.7-.4 1.3-.6 1.9-.2.6-.4 1.1-.5 1.6l-3.5 9.7-1.4 3.8-2.2 5.9c-.1.3-.3.6-.6.8-.3.3-.7.4-1.2.4H179l11.4-29.1h5.5L207.4 35h-4.2c-.5 0-.9-.1-1.2-.4s-.5-.5-.7-.9l-2.2-5.9-1.3-3.8zM153.7 5.9h4.4c.5 0 .9.1 1.2.3.3.2.5.5.7.9l6.9 17.8c.2.6.4 1.2.7 1.9.2.7.4 1.4.6 2.2.3-1.5.7-2.9 1.1-4.1L176 7.1c.1-.3.3-.6.6-.8.3-.3.7-.4 1.1-.4h4.4L170.4 35h-4.9L153.7 5.9z"/></svg>