<?xml version="1.0" encoding="utf-8"?>
<!-- Generator: Adobe Illustrator 21.1.0, SVG Export Plug-In . SVG Version: 6.00 Build 0)  -->
<svg version="1.1" id="Layer_1" xmlns="http://www.w3.org/2000/svg" xmlns:xlink="http://www.w3.org/1999/xlink" x="0px" y="0px"
	 viewBox="0 0 207.4 40.9" style="enable-background:new 0 0 207.4 40.9;" xml:space="preserve">
<style type="text/css">
	.st0{clip-path:url(#SVGID_2_);fill:#E7434E;}
	.st1{clip-path:url(#SVGID_2_);fill:#FFFFFF;}
</style>
<g>
	<defs>
		<rect id="SVGID_1_" y="0" width="207.4" height="40.9"/>
	</defs>
	<clipPath id="SVGID_2_">
		<use xlink:href="#SVGID_1_"  style="overflow:visible;"/>
	</clipPath>
	<path class="st0" d="M20.2,9.2c-2.2,0.5-4.7,0.9-7.7,1.2c0.9-1.6,2-3.1,3.4-4.5C19.7,2.1,24.8,0,30.2,0c2.6,0,4.8,0.3,6.6,0.8
		c3.7,1,6.2,2.8,8.7,4.6c0.8,0.6,1.6,1.2,2.6,1.8c0.5,0.3,0.9,0.6,1.5,0.9c2.2,1.3,5,2.6,9.3,3.6c1.7,1.7,2.8,3.8,3.2,6.1
		c-8.8-1.4-13.7-4-16.9-6.1c-0.9-0.6-1.8-1.2-2.6-1.8c-0.1,0-0.1-0.1-0.2-0.1c-3.5-2.5-6.1-4.4-12.2-4.4h-0.1
		C26.4,5.4,22.9,6.8,20.2,9.2"/>
	<path class="st0" d="M62,23.1c-0.5,2.3-1.6,4.4-3.3,6.1c-4.1,1-7,2.3-9.2,3.6c-0.5,0.3-1,0.6-1.4,0.9c-0.9,0.6-1.8,1.2-2.6,1.8
		c-2.6,1.8-5,3.6-8.7,4.6c-1.8,0.5-4,0.8-6.6,0.8c-5.4,0-10.5-2.1-14.3-5.9c-1.3-1.3-2.5-2.9-3.4-4.5c3,0.3,5.5,0.7,7.7,1.2
		c2.7,2.5,6.2,3.8,9.8,3.8h0.1c6.2,0,8.7-1.8,12.2-4.4c0.1,0,0.1-0.1,0.2-0.1c0.8-0.6,1.6-1.2,2.6-1.8C48.7,26.8,53.6,24.4,62,23.1"
		/>
	<path class="st0" d="M80.4,24.7c0,1.5-1.2,2.7-2.7,2.7c-2,0-3.9,0-5.7,0.1c0.6-1.8,0.9-3.6,1-5.4c1.5-0.1,3-0.1,4.7-0.1
		C79.1,22,80.4,23.2,80.4,24.7"/>
	<path class="st0" d="M73,18.8c-0.1-1.9-0.4-3.7-1-5.4c1.8,0.1,3.7,0.1,5.7,0.1c1.5,0,2.7,1.2,2.7,2.7c0,1.5-1.2,2.7-2.7,2.7
		C76,18.9,74.5,18.8,73,18.8"/>
	<path class="st1" d="M0,15.7c0.2-1.3,1.5-2.2,2.8-2.2c2,0,3.8,0,5.5-0.1c5.5-0.2,9.8-0.8,13.2-1.7c4.1-1,6.9-2.3,9.2-3.6
		c0,0,0,0,0,0c3.1,0.1,5,0.7,6.9,1.7c0,0,0,0.1,0,0.1c-4,2.9-8.8,6.2-19.4,7.9c-3.1,0.5-6.7,0.8-11,1c-1.5,0.1-3,0.1-4.7,0.1
		C1,18.9-0.3,17.4,0,15.7"/>
	<path class="st1" d="M18.3,23.1c10.6,1.7,15.4,5,19.4,7.9c0,0,0,0.1,0,0.1c-1.9,1.1-3.7,1.7-6.9,1.8c0,0,0,0,0,0
		c-2.3-1.3-5.1-2.6-9.2-3.6c-3.4-0.8-7.7-1.4-13.2-1.7c-1.8-0.1-3.6-0.1-5.7-0.1c-1.7,0-3-1.5-2.6-3.2C0.3,22.9,1.5,22,2.8,22
		c1.6,0,3.1,0,4.5,0.1C11.6,22.2,15.2,22.6,18.3,23.1"/>
	<path class="st1" d="M70.3,20.2v0.5c0,3.6-0.9,6.9-2.5,9.8c-3.4,6.2-10.1,10.4-17.6,10.4c-2.6,0-4.7-0.3-6.5-0.8
		c-0.1,0-0.1-0.1,0-0.1c1.2-0.7,2.3-1.5,3.4-2.3c0.8-0.6,1.6-1.2,2.5-1.7c0.2-0.1,0.5-0.3,0.7-0.4c3.8,0,7.2-1.5,9.8-3.8l0,0
		c3-2.7,4.8-6.6,4.8-11v-0.5c0-4.3-1.9-8.2-4.8-10.9c-2.6-2.4-6-3.8-9.8-3.8c-0.3-0.1-0.5-0.3-0.7-0.4c-0.9-0.6-1.7-1.2-2.5-1.7
		c-1.1-0.8-2.2-1.6-3.4-2.3c0,0,0-0.1,0-0.1C45.5,0.3,47.6,0,50.2,0c7.6,0,14.2,4.2,17.6,10.4C69.4,13.3,70.3,16.6,70.3,20.2"/>
	<path class="st1" d="M103.5,5.9c0.2,0,0.3,0.1,0.4,0.1c0.1,0.1,0.3,0.1,0.4,0.3c0.1,0.1,0.3,0.3,0.4,0.5L120,26.2
		c-0.1-0.5-0.1-0.9-0.1-1.4c0-0.5,0-0.9,0-1.3V5.9h4.8V35h-2.8c-0.4,0-0.8-0.1-1.1-0.2c-0.3-0.1-0.6-0.4-0.8-0.7l-15.2-19.4
		c0,0.4,0.1,0.9,0.1,1.3c0,0.4,0,0.8,0,1.2V35H100V5.9h2.8C103.1,5.9,103.3,5.9,103.5,5.9"/>
	<path class="st1" d="M147.4,24l-3.5-9.7c-0.2-0.4-0.3-0.9-0.5-1.5c-0.2-0.6-0.4-1.2-0.6-1.9c-0.2,0.7-0.4,1.3-0.6,1.9
		c-0.2,0.6-0.4,1.1-0.5,1.6l-3.5,9.7l-1.4,3.8l-2.2,5.9c-0.1,0.3-0.3,0.6-0.6,0.8c-0.3,0.3-0.7,0.4-1.2,0.4h-4.2L140,5.9h5.5L157,35
		h-4.2c-0.5,0-0.9-0.1-1.2-0.4s-0.5-0.5-0.7-0.9l-2.2-5.9L147.4,24z"/>
	<path class="st1" d="M197.8,24l-3.5-9.7c-0.2-0.4-0.3-0.9-0.5-1.5c-0.2-0.6-0.4-1.2-0.6-1.9c-0.2,0.7-0.4,1.3-0.6,1.9
		c-0.2,0.6-0.4,1.1-0.5,1.6l-3.5,9.7l-1.4,3.8l-2.2,5.9c-0.1,0.3-0.3,0.6-0.6,0.8c-0.3,0.3-0.7,0.4-1.2,0.4H179l11.4-29.1h5.5
		L207.4,35h-4.2c-0.5,0-0.9-0.1-1.2-0.4s-0.5-0.5-0.7-0.9l-2.2-5.9L197.8,24z"/>
	<path class="st1" d="M153.7,5.9h4.4c0.5,0,0.9,0.1,1.2,0.3c0.3,0.2,0.5,0.5,0.7,0.9l6.9,17.8c0.2,0.6,0.4,1.2,0.7,1.9
		c0.2,0.7,0.4,1.4,0.6,2.2c0.3-1.5,0.7-2.9,1.1-4.1L176,7.1c0.1-0.3,0.3-0.6,0.6-0.8c0.3-0.3,0.7-0.4,1.1-0.4h4.4L170.4,35h-4.9
		L153.7,5.9z"/>
</g>
</svg>
